PathFileType	4	(X/Y/Z)	Run_400 02
DataRate	CameraRate	NumFrames	NumMarkers	Units	OrigDataRate	OrigDataStartFrame	OrigNumFrames
100	100	4	42	mm	100	140	128
Frame#	Time	LASI			RASI			LPSI			RPSI			RTH1			RTH2			RTH3			LTH1			LTH2			LTH3			RTB1			RTB2			RTB3			LTB1			LTB2			LTB3			RCAL			RTOE			RMT5			LCAL			LTOE			LMT5			LACR			RACR			CLAV			C7			RUA1			RUA2			RUA3			RLEL			RMEL			LUA1			LUA2			LUA3			LLEL			LMEL			RFAsuperior			RFAradius			RFAulna			LFAsuperior			LFAradius			LFAulna			
		X1	Y1	Z1	X2	Y2	Z2	X3	Y3	Z3	X4	Y4	Z4	X5	Y5	Z5	X6	Y6	Z6	X7	Y7	Z7	X8	Y8	Z8	X9	Y9	Z9	X10	Y10	Z10	X11	Y11	Z11	X12	Y12	Z12	X13	Y13	Z13	X14	Y14	Z14	X15	Y15	Z15	X16	Y16	Z16	X17	Y17	Z17	X18	Y18	Z18	X19	Y19	Z19	X20	Y20	Z20	X21	Y21	Z21	X22	Y22	Z22	X23	Y23	Z23	X24	Y24	Z24	X25	Y25	Z25	X26	Y26	Z26	X27	Y27	Z27	X28	Y28	Z28	X29	Y29	Z29	X30	Y30	Z30	X31	Y31	Z31	X32	Y32	Z32	X33	Y33	Z33	X34	Y34	Z34	X35	Y35	Z35	X36	Y36	Z36	X37	Y37	Z37	X38	Y38	Z38	X39	Y39	Z39	X40	Y40	Z40	X41	Y41	Z41	X42	Y42	Z42	

132	2.08	876.541462	961.112206	-450.138266	898.8186470000001	993.924159	-211.515011	726.973226	1032.599446	-373.458973	726.748593	1039.132971	-273.627758	951.6755010000001	823.734344	-142.989499	1055.626363	811.199871	-163.249134	1078.402218	709.705403	-178.876117	756.7642059999999	781.613884	-487.151271	753.850639	667.155987	-478.028464	647.265337	598.842399	-460.741299	1117.715548	527.153196	-254.483163	1051.880897	469.756719	-209.929614	1017.291058	368.021351	-275.889449	570.803672	402.547616	-403.71823	474.008686	380.741092	-455.966164	436.595718	268.15867	-391.897204	878.405466	313.558778	-293.129496	1072.094676	208.914132	-317.310499	1022.227254	193.979252	-216.783975	290.524672	255.701121	-373.94327	398.461308	72.94762299999999	-342.809072	335.674142	69.829818	-439.215695	932.038643	1462.615514	-485.016036	888.886307	1469.830842	-196.793993	990.175651	1388.893923	-309.033744	855.390581	1491.483149	-347.683659	781.464318	1432.162906	-117.377967	710.110078	1421.437171	-174.253795	672.7085970000001	1372.577564	-99.721828	600.882912	1351.812656	-86.66296699999999	588.693251	1341.519955	-162.507596	913.78165	1354.389584	-587.0126749999999	860.544604	1288.466501	-586.544338	925.211533	1259.921731	-632.143356	925.471561	1175.778945	-669.331859	886.376525	1138.761065	-614.910636	640.174979	1242.577696	-63.549969	703.570826	1126.088238	-107.334896	635.819524	1109.270436	-98.273696	1011.123838	1221.905772	-600.422748	1070.965478	1238.095278	-475.475547	1116.376776	1200.728248	-509.177995	
133	2.09	879.16666	963.33649	-448.916799	899.951156	996.76052	-210.46404	730.319296	1037.074163	-374.432649	729.049624	1043.419539	-274.347331	950.696405	825.726867	-142.721486	1055.069087	811.953297	-162.690915	1076.279785	709.225366	-180.043166	754.42175	786.605216	-487.397493	747.60509	672.829701	-478.70189	640.115541	607.229011	-460.707926	1127.727866	523.921172	-254.305902	1068.166619	459.209403	-210.049278	1045.925735	354.564813	-277.314012	559.212105	412.062655	-405.300044	462.324779	392.75064	-458.650532	421.985211	280.090136	-395.780404	913.81314	283.645681	-296.025079	1119.653676	205.564926	-321.5187	1071.683061	181.382398	-222.004628	282.09128	276.926198	-380.013864	368.546652	81.17787199999999	-346.782153	305.353953	84.817849	-440.2747	933.87473	1466.822975	-483.031506	890.025992	1472.9268	-196.558123	991.356167	1392.680182	-307.758025	856.6221410000001	1494.644728	-347.415755	781.809607	1437.206751	-117.560869	711.423302	1425.815238	-175.673753	672.614555	1377.123188	-101.301545	600.675753	1356.037027	-89.152494	589.601724	1345.915303	-165.42834	916.8038309999999	1359.129709	-585.5168660000001	862.0189319999999	1293.513548	-584.48223	926.60274	1264.461955	-630.378296	927.759311	1179.452417	-667.0175829999999	888.572153	1142.718157	-612.569577	640.059304	1247.093952	-65.9186	705.643299	1131.418523	-109.021519	638.547793	1113.901671	-102.061308	1011.82943	1227.69927	-597.499204	1068.794776	1246.777237	-472.475171	1116.064923	1210.10255	-503.764487	
134	2.1	881.013794	965.523228	-448.061533	900.700474	998.1057029999999	-209.777679	733.077856	1041.031792	-375.402635	730.940611	1046.99467	-275.087721	948.959265	824.904301	-143.475026	1053.410147	809.69811	-162.288601	1072.572723	705.530989	-180.893053	753.579688	790.659281	-487.480728	745.309636	676.869207	-477.843209	637.136306	612.619477	-460.208009	1135.278737	518.284376	-253.871098	1082.813834	447.150031	-210.010859	1072.962878	340.885659	-278.335462	550.657566	419.424986	-404.603901	454.699649	402.285584	-460.250569	408.635954	291.69534	-397.341739	949.548054	254.475451	-298.783654	1163.923684	204.275528	-325.626853	1119.325224	171.074453	-227.215782	275.1994	297.73703	-384.080973	338.565186	91.788724	-350.574202	277.33671	103.26565	-442.050553	935.544217	1470.200692	-481.374052	891.204914	1475.185632	-196.077518	992.592406	1395.72521	-306.503402	857.730426	1496.916859	-346.985013	782.537258	1441.08752	-117.447754	712.943302	1428.846018	-176.621156	673.0061009999999	1380.325458	-102.348811	600.930222	1358.592517	-90.99967599999999	590.8536779999999	1348.601692	-167.463578	918.773627	1362.95006	-584.004469	862.939253	1297.533162	-581.9524280000001	927.429894	1268.247949	-628.622451	928.845095	1182.263433	-664.836256	889.432722	1146.013869	-610.3972670000001	640.891986	1250.080466	-67.59576300000001	708.813185	1135.451878	-110.233449	642.400488	1116.892393	-105.508113	1011.936051	1231.75487	-593.920913	1066.521905	1252.806257	-470.133103	1115.410658	1216.73845	-499.213289	
135	2.11	882.298753	967.661436	-447.495693	901.344008	998.458125	-209.3441	734.917109	1044.33538	-376.092681	732.43043	1049.647473	-275.605021	946.431229	821.311882	-144.470282	1050.463778	803.8204030000001	-161.817642	1066.910255	698.326294	-181.539207	754.890677	793.043503	-487.070762	747.2770829999999	678.55724	-475.456675	638.108665	614.741451	-459.385223	1140.025477	510.033607	-253.518891	1095.480716	433.434045	-210.309932	1097.440117	327.033755	-279.533941	544.805964	424.717963	-402.553993	450.444098	409.554473	-460.748489	396.415057	303.382327	-397.512375	984.482201	226.573972	-301.360577	1203.528174	204.849798	-329.49663	1163.782711	163.587167	-232.099678	268.37328	318.235361	-386.537553	309.75204	105.598433	-353.700235	252.145787	124.208015	-444.765702	937.185973	1472.656628	-480.214728	892.450249	1476.619797	-195.24109	993.867927	1397.943533	-305.287681	858.718113	1498.351911	-346.101775	783.605047	1443.36477	-116.775383	714.635654	1430.373393	-176.8311	673.913181	1382.003545	-102.797309	601.698185	1359.366759	-92.147921	592.4839480000001	1349.49624	-168.599707	919.654719	1365.667314	-582.510554	863.414825	1300.360344	-579.502124	927.751991	1270.941942	-626.891313	928.732977	1184.142006	-662.855017	889.003612	1148.575019	-608.401263	642.763645	1251.435608	-68.55683999999999	713.0438380000001	1138.062895	-111.022663	647.153478	1118.208335	-108.158332	1011.569883	1233.988187	-590.13818	1064.203651	1256.02312	-468.273281	1114.523075	1220.443754	-495.536608	
